- 
http://www.Speed.Cd
 
http://www.Speed.Cd       the fast  and The Hottest Private Tracker on the net

Please Seed back to make the speed Faster!!
 ............ NFO .............
-[IMG]http://img402.imageshack.us/img402/3020/housos.jpg[/IMG]


[color=blue][size=5][b]Housos.Vs.Authority.2013.DVDRiP.XViD.AC3-CM8[/b][/size][/color]


Source: DVD9

Video: 672x384 @bitrate 1580 2pass
Audio: English AC3 5.1 @448
Sample: Yes, included[/b]

 
http://www.imdb.com/title/tt2483516/


General
Complete name                            : Housos.Vs.Authority.2013.DVDRiP.XViD.AC3-CM8.avi
Format                                   : AVI
Format/Info                              : Audio Video Interleave
File size                                : 1.46 GiB
Duration                                 : 1h 42mn
Overall bit rate                         : 2 033 Kbps
Writing application                      : VirtualDubMod 1.5.4.1 (build 2178/release)
Writing library                          : VirtualDubMod build 2178/release

Video
ID                                       : 0
Format                                   : MPEG-4 Visual
Format profile                           : Advanced Simple@L5
Format settings, BVOP                    : 1
Format settings, QPel                    : No
Format settings, GMC                     : No warppoints
Format settings, Matrix                  : Custom
Codec ID                                 : XVID
Codec ID/Hint                            : XviD
Duration                                 : 1h 42mn
Bit rate                                 : 1 578 Kbps
Width                                    : 672 pixels
Height                                   : 384 pixels
Display aspect ratio                     : 16:9
Frame rate                               : 25.000 fps
Color space                              : YUV
Chroma subsampling                       : 4:2:0
Bit depth                                : 8 bits
Scan type                                : Progressive
Compression mode                         : Lossy
Bits/(Pixel*Frame)                       : 0.245
Stream size                              : 1.13 GiB (78%)
Writing library                          : XviD 1.2.1 (UTC 2008-12-04)

Audio
ID                                       : 1
Format                                   : AC-3
Format/Info                              : Audio Coding 3
Mode extension                           : CM (complete main)
Format settings, Endianness              : Big
Codec ID                                 : 2000
Duration                                 : 1h 42mn
Bit rate mode                            : Constant
Bit rate                                 : 448 Kbps
Channel(s)                               : 6 channels
Channel positions                        : Front: L C R, Side: L R, LFE
Sampling rate                            : 48.0 KHz
Bit depth                                : 16 bits
Compression mode                         : Lossy
Stream size                              : 329 MiB (22%)
Alignment                                : Split accross interleaves
Interleave, duration                     : 96 ms (2.40 video frames)
Interleave, preload duration             : 96 ms


Plot:

Franky (Fenech) and his best mate Dazza (Jason Davis) travel in a drug-laden campervan from the western outskirts of Sydney to Uluru so that Dazza's foul-mouthed girlfriend Shazza (Elle Dawe) can be reunited with the dying mother she hasn't seen since she was three.


Cast:

Elle Dawe as Shazza
Jason "Jabba" Davis as Dazza
Paul Fenech as Franky
Kev Taumata as Kevin
Vanessa Davis as Vanessa
Russell Gilbert as Bazza
Ashur Simon as Abdul
Tahir Bilgic as Habib


[img]http://img580.imageshack.us/img580/5229/vlcsnap00001ej.png[/img]
[img]http://img266.imageshack.us/img266/1175/vlcsnap00002hp.png[/img]
[img]http://img16.imageshack.us/img16/403/vlcsnap00003tv.png[/img]
[img]http://img407.imageshack.us/img407/3373/vlcsnap00004il.png[/img]
[img]http://img688.imageshack.us/img688/5317/vlcsnap00005zo.png[/img]
[img]http://img339.imageshack.us/img339/7756/vlcsnap00006t.png[/img]




Greetz

LTFS,ViSiON,SPK,SceneLovers,PRESTiGE,SANTi,3LT0N,YanKeeS,COPYxRIGHT,THC,T0XiC
D2U,LKRG,ADTRG,Feel-Free,KoDeKinG,FLAWL3SS,WBZ,BHRG,26K,NOVA,MAGNET
Unevano,BigVik,Rapeseed,SAFC,goldadvance,KaN1vE,Pinnz,Wayne,HiGH
SeeN,jtr,Limey,ICONiK,4PlayHD,THEDEN-RG,eXceSs,AKS74u,TED
Mr Hive,rkofan,and most P2P groups
Great Work Guys :D

LOOKING FOR ANYTHING YOU WANT TO LOOK AND SOUND BETTER

CM8@hushmail.com